<?xml version="1.0" standalone="no"?>
<!DOCTYPE svg PUBLIC "-//W3C//DTD SVG 20010904//EN"
 "http://www.w3.org/TR/2001/REC-SVG-20010904/DTD/svg10.dtd">
<svg version="1.0" xmlns="http://www.w3.org/2000/svg"
 width="1182.000000pt" height="425.000000pt" viewBox="0 0 1182.000000 425.000000"
 preserveAspectRatio="xMidYMid meet">

<g transform="translate(0.000000,425.000000) scale(0.100000,-0.100000)"
fill="#002766" stroke="none">
<path d="M4351 3609 c-482 -58 -832 -318 -916 -682 -20 -89 -29 -213 -20 -293
l8 -69 11 55 c49 235 297 412 651 467 194 29 458 5 661 -63 155 -52 368 -169
456 -252 15 -14 31 -22 35 -18 5 4 8 167 8 362 0 304 -2 356 -15 364 -50 32
-257 94 -385 116 -113 19 -383 26 -494 13z"/>
<path d="M1386 3532 c-7 -12 -846 -2810 -846 -2822 0 -7 140 -9 422 -8 l422 3
55 252 56 253 370 0 371 0 48 -218 c26 -119 52 -234 57 -254 l10 -38 419 0
c314 0 420 3 420 12 0 14 -826 2773 -840 2806 l-10 22 -474 0 c-261 0 -477 -4
-480 -8z m609 -1207 c69 -311 125 -569 125 -571 0 -2 -115 -4 -255 -4 l-255 0
5 23 c17 74 245 1119 245 1124 0 35 28 -85 135 -572z"/>
<path d="M6090 3538 c0 -10 -361 -2780 -365 -2805 l-6 -33 395 0 396 0 4 23
c3 12 35 405 71 872 36 468 67 857 69 865 4 23 4 23 191 -885 97 -467 177
-856 180 -862 3 -10 76 -13 315 -13 170 0 310 3 310 7 0 16 362 1758 366 1762
2 2 4 0 4 -5 0 -24 131 -1685 136 -1721 l5 -43 395 0 c217 0 394 3 394 6 0 14
-361 2791 -365 2812 l-5 22 -420 0 c-230 0 -421 -4 -424 -8 -3 -5 -91 -377
-196 -828 -105 -450 -194 -829 -198 -842 -6 -20 -196 768 -389 1616 l-15 62
-424 0 c-233 0 -424 -1 -424 -2z"/>
<path d="M9350 2115 l0 -1415 905 0 905 0 0 300 0 300 -525 0 -525 0 0 1115 0
1115 -380 0 -380 0 0 -1415z"/>
<path d="M4265 2932 c-379 -129 -485 -566 -210 -869 71 -79 139 -130 265 -198
209 -113 264 -178 265 -310 0 -99 -36 -171 -116 -230 -83 -61 -162 -86 -289
-92 -231 -11 -473 65 -717 226 l-93 61 0 -339 0 -340 107 -41 c127 -49 276
-92 422 -121 147 -30 447 -38 587 -16 473 76 867 382 960 747 25 97 15 288
-19 395 -47 145 -129 257 -259 355 -103 78 -229 139 -503 243 -255 97 -310
124 -367 175 -75 67 -99 171 -59 257 21 46 39 64 101 99 60 34 28 34 -75 -2z"/>
</g>
</svg>
